HIERARCHY
ROOT mixamorig:Hips
{
	OFFSET 0.000000 101.145821 0.000000
	CHANNELS 6 Xposition Yposition Zposition Xrotation Yrotation Zrotation
	JOINT mixamorig:Spine
	{
		OFFSET 0.000000 9.527199 -1.123700
		CHANNELS 3 Xrotation Yrotation Zrotation
		JOINT mixamorig:Spine1
		{
			OFFSET 0.000000 11.115059 -1.310932
			CHANNELS 3 Xrotation Yrotation Zrotation
			JOINT mixamorig:Spine2
			{
				OFFSET 0.000000 12.702950 -1.498210
				CHANNELS 3 Xrotation Yrotation Zrotation
				JOINT mixamorig:Neck
				{
					OFFSET 0.000000 14.290848 -1.685491
					CHANNELS 3 Xrotation Yrotation Zrotation
					JOINT mixamorig:Head
					{
						OFFSET 0.000000 7.216309 1.821200
						CHANNELS 3 Xrotation Yrotation Zrotation
						JOINT mixamorig:HeadTop_End
						{
							OFFSET 0.000000 22.453400 5.666602
							CHANNELS 3 Xrotation Yrotation Zrotation
							End Site
							{
								OFFSET 0.000000 23.157410 0.000000
							}
						}
					}
				}
				JOINT mixamorig:LeftShoulder
				{
					OFFSET 6.857200 12.380463 -1.717347
					CHANNELS 3 Xrotation Yrotation Zrotation
					JOINT mixamorig:LeftArm
					{
						OFFSET 14.252844 -3.742325 -0.063730
						CHANNELS 3 Xrotation Yrotation Zrotation
						JOINT mixamorig:LeftForeArm
						{
							OFFSET 26.388903 0.000000 0.000000
							CHANNELS 3 Xrotation Yrotation Zrotation
							JOINT mixamorig:LeftHand
							{
								OFFSET 22.187302 0.000000 0.000000
								CHANNELS 3 Xrotation Yrotation Zrotation
								JOINT mixamorig:LeftHandThumb1
								{
									OFFSET 3.371109 -1.418762 2.720964
									CHANNELS 3 Xrotation Yrotation Zrotation
									JOINT mixamorig:LeftHandThumb2
									{
										OFFSET 2.824837 -1.630920 1.630919
										CHANNELS 3 Xrotation Yrotation Zrotation
										JOINT mixamorig:LeftHandThumb3
										{
											OFFSET 2.596542 -1.499115 1.499113
											CHANNELS 3 Xrotation Yrotation Zrotation
											JOINT mixamorig:LeftHandThumb4
											{
												OFFSET 2.051956 -1.184692 1.184698
												CHANNELS 3 Xrotation Yrotation Zrotation
												End Site
												{
													OFFSET 1.671860 -1.108948 1.729937
												}
											}
										}
									}
								}
								JOINT mixamorig:LeftHandIndex1
								{
									OFFSET 10.021935 -0.373764 2.647338
									CHANNELS 3 Xrotation Yrotation Zrotation
									JOINT mixamorig:LeftHandIndex2
									{
										OFFSET 3.332962 0.000000 0.000000
										CHANNELS 3 Xrotation Yrotation Zrotation
										JOINT mixamorig:LeftHandIndex3
										{
											OFFSET 3.099510 0.000000 0.000000
											CHANNELS 3 Xrotation Yrotation Zrotation
											JOINT mixamorig:LeftHandIndex4
											{
												OFFSET 2.696228 0.000000 0.000000
												CHANNELS 3 Xrotation Yrotation Zrotation
												End Site
												{
													OFFSET 2.696205 -0.000259 -0.011797
												}
											}
										}
									}
								}
								JOINT mixamorig:LeftHandMiddle1
								{
									OFFSET 10.302925 0.000000 0.000000
									CHANNELS 3 Xrotation Yrotation Zrotation
									JOINT mixamorig:LeftHandMiddle2
									{
										OFFSET 3.422028 0.000000 0.000000
										CHANNELS 3 Xrotation Yrotation Zrotation
										JOINT mixamorig:LeftHandMiddle3
										{
											OFFSET 3.178337 0.000000 0.000000
											CHANNELS 3 Xrotation Yrotation Zrotation
											JOINT mixamorig:LeftHandMiddle4
											{
												OFFSET 2.810799 0.000000 0.000000
												CHANNELS 3 Xrotation Yrotation Zrotation
												End Site
												{
													OFFSET 2.810806 0.000031 0.001400
												}
											}
										}
									}
								}
								JOINT mixamorig:LeftHandRing1
								{
									OFFSET 10.179443 0.007751 -2.129168
									CHANNELS 3 Xrotation Yrotation Zrotation
									JOINT mixamorig:LeftHandRing2
									{
										OFFSET 2.891701 0.000000 0.000000
										CHANNELS 3 Xrotation Yrotation Zrotation
										JOINT mixamorig:LeftHandRing3
										{
											OFFSET 2.655098 0.000000 0.000000
											CHANNELS 3 Xrotation Yrotation Zrotation
											JOINT mixamorig:LeftHandRing4
											{
												OFFSET 2.316605 0.000000 0.000000
												CHANNELS 3 Xrotation Yrotation Zrotation
												End Site
												{
													OFFSET 2.316605 0.000122 0.003198
												}
											}
										}
									}
								}
								JOINT mixamorig:LeftHandPinky1
								{
									OFFSET 8.693832 -0.378220 -4.286855
									CHANNELS 3 Xrotation Yrotation Zrotation
									JOINT mixamorig:LeftHandPinky2
									{
										OFFSET 2.734833 0.000000 0.000000
										CHANNELS 3 Xrotation Yrotation Zrotation
										JOINT mixamorig:LeftHandPinky3
										{
											OFFSET 2.249535 0.000000 0.000000
											CHANNELS 3 Xrotation Yrotation Zrotation
											JOINT mixamorig:LeftHandPinky4
											{
												OFFSET 1.794998 0.000000 0.000000
												CHANNELS 3 Xrotation Yrotation Zrotation
												End Site
												{
													OFFSET 1.794998 -0.000015 -0.000800
												}
											}
										}
									}
								}
							}
						}
					}
				}
				JOINT mixamorig:RightShoulder
				{
					OFFSET -6.857200 12.380539 -1.653616
					CHANNELS 3 Xrotation Yrotation Zrotation
					JOINT mixamorig:RightArm
					{
						OFFSET -14.252825 -3.742401 0.063731
						CHANNELS 3 Xrotation Yrotation Zrotation
						JOINT mixamorig:RightForeArm
						{
							OFFSET -26.397295 0.000000 0.000000
							CHANNELS 3 Xrotation Yrotation Zrotation
							JOINT mixamorig:RightHand
							{
								OFFSET -22.188801 0.000000 0.000000
								CHANNELS 3 Xrotation Yrotation Zrotation
								JOINT mixamorig:RightHandThumb1
								{
									OFFSET -3.149918 -1.211151 2.536731
									CHANNELS 3 Xrotation Yrotation Zrotation
									JOINT mixamorig:RightHandThumb2
									{
										OFFSET -2.616150 -1.510437 1.510437
										CHANNELS 3 Xrotation Yrotation Zrotation
										JOINT mixamorig:RightHandThumb3
										{
											OFFSET -2.719131 -1.569885 1.569892
											CHANNELS 3 Xrotation Yrotation Zrotation
											JOINT mixamorig:RightHandThumb4
											{
												OFFSET -2.417221 -1.395584 1.395586
												CHANNELS 3 Xrotation Yrotation Zrotation
												End Site
												{
													OFFSET -2.163742 -1.361862 1.789371
												}
											}
										}
									}
								}
								JOINT mixamorig:RightHandIndex1
								{
									OFFSET -10.216621 -0.262512 2.578756
									CHANNELS 3 Xrotation Yrotation Zrotation
									JOINT mixamorig:RightHandIndex2
									{
										OFFSET -3.227623 0.000000 0.000000
										CHANNELS 3 Xrotation Yrotation Zrotation
										JOINT mixamorig:RightHandIndex3
										{
											OFFSET -3.066185 0.000000 0.000000
											CHANNELS 3 Xrotation Yrotation Zrotation
											JOINT mixamorig:RightHandIndex4
											{
												OFFSET -2.649925 0.000000 0.000000
												CHANNELS 3 Xrotation Yrotation Zrotation
												End Site
												{
													OFFSET -2.649895 0.000244 0.011397
												}
											}
										}
									}
								}
								JOINT mixamorig:RightHandMiddle1
								{
									OFFSET -10.221970 0.000000 0.000000
									CHANNELS 3 Xrotation Yrotation Zrotation
									JOINT mixamorig:RightHandMiddle2
									{
										OFFSET -3.459976 0.000000 0.000000
										CHANNELS 3 Xrotation Yrotation Zrotation
										JOINT mixamorig:RightHandMiddle3
										{
											OFFSET -3.247513 0.000000 0.000000
											CHANNELS 3 Xrotation Yrotation Zrotation
											JOINT mixamorig:RightHandMiddle4
											{
												OFFSET -2.860039 0.000000 0.000000
												CHANNELS 3 Xrotation Yrotation Zrotation
												End Site
												{
													OFFSET -2.859993 -0.000305 -0.014497
												}
											}
										}
									}
								}
								JOINT mixamorig:RightHandRing1
								{
									OFFSET -10.004440 -0.046616 -2.173048
									CHANNELS 3 Xrotation Yrotation Zrotation
									JOINT mixamorig:RightHandRing2
									{
										OFFSET -2.852303 0.000000 0.000000
										CHANNELS 3 Xrotation Yrotation Zrotation
										JOINT mixamorig:RightHandRing3
										{
											OFFSET -2.729507 0.000000 0.000000
											CHANNELS 3 Xrotation Yrotation Zrotation
											JOINT mixamorig:RightHandRing4
											{
												OFFSET -2.397408 0.000000 0.000000
												CHANNELS 3 Xrotation Yrotation Zrotation
												End Site
												{
													OFFSET -2.397400 0.000137 0.004098
												}
											}
										}
									}
								}
								JOINT mixamorig:RightHandPinky1
								{
									OFFSET -8.757751 -0.242249 -4.382912
									CHANNELS 3 Xrotation Yrotation Zrotation
									JOINT mixamorig:RightHandPinky2
									{
										OFFSET -2.696320 0.000000 0.000000
										CHANNELS 3 Xrotation Yrotation Zrotation
										JOINT mixamorig:RightHandPinky3
										{
											OFFSET -2.184341 0.000000 0.000000
											CHANNELS 3 Xrotation Yrotation Zrotation
											JOINT mixamorig:RightHandPinky4
											{
												OFFSET -1.831001 0.000000 0.000000
												CHANNELS 3 Xrotation Yrotation Zrotation
												End Site
												{
													OFFSET -1.831009 0.000061 0.002299
												}
											}
										}
									}
								}
							}
						}
					}
				}
			}
		}
	}
	JOINT mixamorig:LeftUpLeg
	{
		OFFSET 8.558900 -5.291702 -0.376000
		CHANNELS 3 Xrotation Yrotation Zrotation
		JOINT mixamorig:LeftLeg
		{
			OFFSET 0.140724 -42.572769 -2.364375
			CHANNELS 3 Xrotation Yrotation Zrotation
			JOINT mixamorig:LeftFoot
			{
				OFFSET -0.140728 -41.542858 -4.122118
				CHANNELS 3 Xrotation Yrotation Zrotation
				JOINT mixamorig:LeftToeBase
				{
					OFFSET 1.871619 -9.935534 15.566000
					CHANNELS 3 Xrotation Yrotation Zrotation
					JOINT mixamorig:LeftToe_End
					{
						OFFSET 0.795664 0.495370 6.911238
						CHANNELS 3 Xrotation Yrotation Zrotation
						End Site
						{
							OFFSET 0.795664 0.495370 6.911236
						}
					}
				}
			}
		}
	}
	JOINT mixamorig:RightUpLeg
	{
		OFFSET -8.558900 -5.291702 -0.358400
		CHANNELS 3 Xrotation Yrotation Zrotation
		JOINT mixamorig:RightLeg
		{
			OFFSET -0.140737 -42.572708 -2.288581
			CHANNELS 3 Xrotation Yrotation Zrotation
			JOINT mixamorig:RightFoot
			{
				OFFSET 0.140738 -41.543118 -3.267981
				CHANNELS 3 Xrotation Yrotation Zrotation
				JOINT mixamorig:RightToeBase
				{
					OFFSET -1.871551 -9.934559 14.362027
					CHANNELS 3 Xrotation Yrotation Zrotation
					JOINT mixamorig:RightToe_End
					{
						OFFSET -0.795640 0.495778 6.879520
						CHANNELS 3 Xrotation Yrotation Zrotation
						End Site
						{
							OFFSET -0.795640 0.495778 6.879520
						}
					}
				}
			}
		}
	}
}
MOTION
Frames: 4
Frame Time: 0.033333
3.671696 98.935738 92.694077 -171.095310 68.221938 177.942984 10.475768 -3.425583 -6.277332 5.884062 -0.750338 -0.178304 5.892141 -0.686753 -0.172538 -10.725208 -0.002924 2.045217 -4.239600 13.171565 -3.406809 -0.000000 -0.000000 0.000000 4.628706 8.351078 -9.912109 -7.830391 -14.156294 -59.316518 0.000002 -11.059230 -0.000002 8.971628 -16.031000 -0.726783 -3.469776 3.607313 7.883168 9.703621 22.223530 2.891179 -5.879030 9.699133 15.674871 0.000001 -0.000005 0.000004 0.162359 3.429606 -10.498177 0.209648 1.554734 -15.358565 0.209647 1.554736 -15.358580 0.000001 -0.000000 -0.000000 0.362532 4.206373 -18.344215 0.474615 2.311797 -23.200245 0.474595 2.311783 -23.200223 0.000000 0.000000 0.000003 0.689006 4.991709 -26.673248 0.865728 3.066791 -31.521453 0.865735 3.066794 -31.521446 0.000000 -0.000000 -0.000001 0.902495 5.377887 -30.995357 1.110579 3.433639 -35.838170 1.110576 3.433622 -35.838149 -0.000000 -0.000001 -0.000000 1.416107 6.360743 17.432642 -2.096965 -3.934110 65.117521 -0.000009 27.419439 0.000028 -23.982208 -17.152120 -15.548991 -1.986182 -5.435662 -3.761600 8.766490 -20.697671 -3.062053 -5.504756 -5.510988 -14.718532 0.000000 -0.000003 0.000000 2.057112 -6.108260 55.293557 5.419381 -4.594511 99.429379 3.163309 -4.411556 71.271269 -0.000000 -0.000001 -0.000002 2.592847 -6.426551 62.973436 4.946623 -4.648182 93.567308 3.098001 -4.388970 70.420589 -0.000001 0.000001 -0.000000 2.855009 -6.549352 66.538576 4.919114 -4.649805 93.228216 2.921295 -4.322232 68.093960 -0.000000 -0.000000 0.000001 1.542105 -5.696826 47.168207 2.898972 -4.313201 67.797346 2.788762 -4.266696 66.323930 0.000001 0.000000 0.000002 -27.745338 9.840715 5.376173 33.674520 4.051248 2.688669 -0.838048 1.021175 -13.519748 -1.975169 0.000003 0.000000 0.000000 0.000004 -0.000000 -8.598824 -9.554008 -12.764116 27.039247 -9.543628 -2.930994 -14.890847 -3.845981 9.231688 -6.921857 -0.000046 -0.000003 0.000000 0.000000 0.000000 
4.044370 98.734749 91.795753 -172.404807 64.451687 179.193524 10.554845 -3.367800 -6.596935 5.946828 -0.721360 -0.014472 5.953282 -0.646888 -0.007123 -10.723698 -0.076833 2.017212 -4.132673 14.753907 -3.217233 0.000000 -0.000002 0.000000 4.379354 8.012807 -9.316073 -5.814279 -11.157491 -59.282442 -0.000003 -12.116980 0.000003 9.840683 -13.043641 -2.690932 -3.469775 3.607311 7.883167 9.703622 22.223525 2.891180 -5.879032 9.699134 15.674873 0.000001 -0.000006 0.000001 0.162359 3.429608 -10.498179 0.209648 1.554735 -15.358567 0.209647 1.554736 -15.358582 -0.000000 0.000000 -0.000003 0.362532 4.206371 -18.344216 0.474615 2.311797 -23.200242 0.474596 2.311783 -23.200216 0.000000 0.000000 0.000001 0.689006 4.991709 -26.673250 0.865727 3.066791 -31.521456 0.865735 3.066794 -31.521446 -0.000000 0.000000 0.000003 0.902495 5.377887 -30.995364 1.110580 3.433638 -35.838173 1.110576 3.433622 -35.838149 -0.000000 -0.000000 -0.000000 1.445997 6.217848 17.516961 -2.458882 -5.672478 64.434079 -0.000005 26.317955 0.000027 -20.671378 -16.762396 -14.046534 -1.986183 -5.435661 -3.761598 8.766484 -20.697671 -3.062053 -5.504762 -5.510990 -14.718528 -0.000000 -0.000001 0.000002 2.057112 -6.108259 55.293561 5.419377 -4.594511 99.429379 3.163308 -4.411555 71.271269 0.000000 0.000002 0.000001 2.592848 -6.426552 62.973443 4.946623 -4.648185 93.567308 3.098001 -4.388968 70.420589 0.000001 -0.000000 0.000000 2.855009 -6.549354 66.538576 4.919114 -4.649802 93.228203 2.921297 -4.322232 68.093960 -0.000001 0.000000 0.000001 1.542106 -5.696829 47.168211 2.898972 -4.313202 67.797346 2.788764 -4.266696 66.323930 -0.000001 0.000000 -0.000002 -27.016453 9.399215 5.692668 30.904017 5.892179 3.209039 -1.129554 1.718879 -12.434908 -1.612557 0.000007 0.000001 -0.000000 0.000003 0.000000 -7.571916 -10.539681 -12.830371 26.862009 -9.540689 -2.887305 -15.166918 -6.863796 9.647108 -6.974688 -0.000022 -0.000005 0.000001 -0.000001 0.000000 
4.443058 98.528168 90.621010 -173.183586 60.707117 179.911595 10.716615 -3.251237 -6.981714 5.955577 -0.668793 0.128489 5.959590 -0.583708 0.137153 -10.731281 -0.155507 1.981098 -4.034675 16.475562 -2.959863 -0.000000 -0.000000 -0.000000 4.132135 7.675660 -8.704143 -4.336546 -8.590489 -59.631288 -0.000012 -13.164174 -0.000017 10.983584 -9.814099 -4.860717 -3.469777 3.607310 7.883170 9.703620 22.223521 2.891179 -5.879033 9.699132 15.674871 -0.000000 -0.000009 0.000002 0.162358 3.429608 -10.498178 0.209647 1.554735 -15.358567 0.209646 1.554736 -15.358584 0.000001 -0.000000 -0.000001 0.362533 4.206371 -18.344220 0.474617 2.311797 -23.200242 0.474595 2.311783 -23.200221 0.000000 -0.000001 0.000003 0.689006 4.991710 -26.673250 0.865728 3.066791 -31.521456 0.865733 3.066794 -31.521446 -0.000000 0.000000 -0.000000 0.902496 5.377888 -30.995357 1.110580 3.433638 -35.838170 1.110576 3.433622 -35.838149 -0.000000 -0.000000 -0.000000 1.462158 6.127414 17.518711 -2.421107 -7.096996 63.925892 -0.000009 25.083211 0.000016 -17.633038 -16.282691 -12.834027 -1.986182 -5.435663 -3.761600 8.766488 -20.697671 -3.062055 -5.504759 -5.510984 -14.718533 0.000000 -0.000003 0.000000 2.057113 -6.108259 55.293564 5.419378 -4.594512 99.429379 3.163310 -4.411559 71.271275 -0.000002 0.000000 -0.000001 2.592848 -6.426552 62.973443 4.946621 -4.648182 93.567315 3.097999 -4.388969 70.420589 -0.000002 0.000001 -0.000001 2.855010 -6.549353 66.538576 4.919113 -4.649803 93.228209 2.921296 -4.322232 68.093953 -0.000001 0.000000 0.000003 1.542106 -5.696826 47.168211 2.898973 -4.313197 67.797346 2.788765 -4.266695 66.323930 0.000000 -0.000001 0.000002 -25.757229 8.783534 5.774636 27.706393 6.979984 3.561940 -0.752539 2.843825 -11.736859 -1.608034 -0.000003 -0.000003 0.000000 0.000002 0.000000 -6.130670 -11.599809 -12.912355 26.268920 -9.548512 -2.810612 -15.297199 -9.842796 10.231538 -6.984098 -0.000028 -0.000004 0.000001 0.000000 0.000000 
4.842339 98.334290 89.162010 -173.751912 57.038456 180.420717 10.842069 -3.114052 -7.375530 5.906644 -0.605228 0.217327 5.907960 -0.512291 0.226461 -10.747500 -0.238484 1.937250 -3.982761 18.244368 -2.644547 0.000000 0.000002 -0.000000 3.880364 7.320339 -8.094113 -3.300864 -6.387111 -60.256147 0.000005 -13.871317 0.000015 12.400902 -6.504209 -7.184764 -3.469778 3.607312 7.883168 9.703618 22.223518 2.891175 -5.879031 9.699134 15.674873 -0.000001 -0.000008 0.000002 0.162359 3.429607 -10.498179 0.209647 1.554734 -15.358568 0.209647 1.554736 -15.358579 -0.000002 -0.000000 -0.000002 0.362532 4.206369 -18.344218 0.474616 2.311797 -23.200245 0.474595 2.311784 -23.200220 0.000000 -0.000000 -0.000000 0.689005 4.991710 -26.673250 0.865730 3.066791 -31.521456 0.865734 3.066793 -31.521449 0.000001 -0.000000 0.000001 0.902495 5.377888 -30.995357 1.110579 3.433638 -35.838166 1.110575 3.433624 -35.838146 0.000000 0.000000 0.000000 1.461104 6.096994 17.404598 -1.775314 -8.061430 63.641756 -0.000008 23.832663 0.000008 -15.169389 -15.931527 -12.056915 -1.986184 -5.435663 -3.761596 8.766488 -20.697667 -3.062054 -5.504756 -5.510989 -14.718530 -0.000002 0.000000 0.000002 2.057111 -6.108260 55.293564 5.419378 -4.594515 99.429386 3.163308 -4.411552 71.271275 0.000001 -0.000001 0.000001 2.592849 -6.426554 62.973443 4.946624 -4.648182 93.567315 3.097999 -4.388972 70.420589 -0.000000 0.000001 -0.000000 2.855009 -6.549351 66.538576 4.919115 -4.649804 93.228209 2.921295 -4.322233 68.093960 -0.000001 -0.000002 0.000000 1.542107 -5.696828 47.168207 2.898973 -4.313198 67.797346 2.788761 -4.266695 66.323937 -0.000001 0.000002 -0.000001 -24.143899 8.195032 5.606737 24.239551 7.752924 3.812512 0.604972 4.182884 -11.925077 -1.770659 0.000017 0.000001 0.000000 0.000001 0.000000 -4.247386 -12.734415 -12.980740 25.033485 -9.591781 -2.710587 -15.174145 -12.749623 10.971766 -6.955705 -0.000002 -0.000002 -0.000000 0.000000 0.000000 
